<svg width="360" height="360" viewBox="0 0 360 360" fill="none" xmlns="http://www.w3.org/2000/svg">
<g clip-path="url(#clip0_3655_83)">
<rect width="360" height="360" rx="180" fill="#E5F1FF"/>
<g clip-path="url(#clip1_3655_83)">
<path d="M58.9016 314.015C60.2912 312.114 62.0419 310.38 63.015 308.285C73.9222 284.806 89.6416 265.454 112.001 252.091C120.344 247.105 129.306 243.114 138.172 239.078C140.119 238.191 143.222 238.28 145.169 239.216C156.445 244.639 168.406 247.504 180.733 247.72C193.618 247.946 206.03 244.824 217.763 239.208C219.526 238.365 222.121 237.98 223.887 238.615C254.421 249.598 278.009 269.086 294.375 297.13C297.455 302.408 299.832 308.096 302.668 314.121C302.222 314.921 301.52 315.066 301.076 315.485C286.638 329.106 270.074 339.408 251.797 347.011C238.313 352.62 224.479 357.037 209.952 359.076C209.225 359.178 208.647 360.335 208 361C190.312 361 172.625 361 154.774 360.645C150.138 359.196 145.671 358.084 141.194 357.011C122.232 352.466 103.916 346.209 87.6713 335.16C77.8371 328.471 68.4755 321.087 58.9016 314.015Z" fill="#243443"/>
<path d="M247.037 177.934C241.422 202.497 226.474 218.59 203.726 227.288C192.416 231.613 180.432 232.338 168.4 229.665C144.569 224.37 127.527 210.515 118.755 187.907C107.988 160.155 116.479 129.851 139.535 111.652C158.949 96.3275 180.654 92.8553 203.814 100.581C218.173 105.371 229.522 114.61 237.926 127.542C245.441 139.104 248.622 151.733 248.806 165.232C248.862 169.319 247.708 173.423 247.037 177.934Z" fill="#243443"/>
</g>
</g>
<rect x="1" y="1" width="358" height="358" rx="179" stroke="#243443" stroke-width="2"/>
<defs>
<clipPath id="clip0_3655_83">
<rect width="360" height="360" rx="180" fill="white"/>
</clipPath>
<clipPath id="clip1_3655_83">
<rect width="360" height="360" fill="white"/>
</clipPath>
</defs>
</svg>
