<svg width="18" height="18" viewBox="0 0 18 18" fill="none" xmlns="http://www.w3.org/2000/svg">
<path d="M17.7604 4.3305L13.6695 0.239555C13.5161 0.086168 13.308 0 13.091 0C12.8741 0 12.666 0.086168 12.5126 0.239555L0.23973 12.5124C0.0862786 12.6658 4.63401e-05 12.8739 0 13.0909V17.1818C0 17.3988 0.0862019 17.6069 0.239642 17.7604C0.393083 17.9138 0.601192 18 0.81819 18H4.90914C5.12612 18 5.33419 17.9137 5.4876 17.7603L17.7604 5.48742C17.9138 5.33399 18 5.12592 18 4.90896C18 4.69201 17.9138 4.48394 17.7604 4.3305ZM4.57041 16.3636H1.63638V13.4296L10.6365 4.4295L13.5705 7.36353L4.57041 16.3636ZM14.7274 6.20661L11.7934 3.27258L13.091 1.97494L16.0251 4.90896L14.7274 6.20661Z" fill="white"/>
<path d="M17.7604 4.3305L13.6695 0.239555C13.5161 0.086168 13.308 0 13.091 0C12.8741 0 12.666 0.086168 12.5126 0.239555L0.23973 12.5124C0.0862786 12.6658 4.63401e-05 12.8739 0 13.0909V17.1818C0 17.3988 0.0862019 17.6069 0.239642 17.7604C0.393083 17.9138 0.601192 18 0.81819 18H4.90914C5.12612 18 5.33419 17.9137 5.4876 17.7603L17.7604 5.48742C17.9138 5.33399 18 5.12592 18 4.90896C18 4.69201 17.9138 4.48394 17.7604 4.3305ZM4.57041 16.3636H1.63638V13.4296L10.6365 4.4295L13.5705 7.36353L4.57041 16.3636ZM14.7274 6.20661L11.7934 3.27258L13.091 1.97494L16.0251 4.90896L14.7274 6.20661Z" fill="url(#paint0_linear_2688_399)"/>
<defs>
<linearGradient id="paint0_linear_2688_399" x1="9" y1="0" x2="9" y2="18" gradientUnits="userSpaceOnUse">
<stop stop-color="white"/>
<stop offset="1" stop-color="white" stop-opacity="0"/>
</linearGradient>
</defs>
</svg>
