<svg width="512" height="512" viewBox="0 0 512 512" fill="none" xmlns="http://www.w3.org/2000/svg">
<circle cx="256" cy="256" r="256" fill="#377DFF"/>
<path d="M110.011 198.727L134.064 239.378H134.996L159.165 198.727H187.643L151.244 258.364L188.459 318H159.456L134.996 277.291H134.064L109.604 318H80.7173L118.048 258.364L81.4162 198.727H110.011ZM228.643 319.689C222.936 319.689 217.85 318.699 213.385 316.719C208.92 314.7 205.387 311.73 202.786 307.808C200.223 303.848 198.942 298.917 198.942 293.016C198.942 288.046 199.854 283.872 201.679 280.494C203.504 277.116 205.989 274.399 209.134 272.341C212.278 270.283 215.85 268.73 219.849 267.682C223.887 266.634 228.119 265.896 232.545 265.469C237.748 264.925 241.941 264.42 245.125 263.955C248.309 263.45 250.619 262.712 252.055 261.741C253.492 260.771 254.21 259.334 254.21 257.432V257.082C254.21 253.394 253.045 250.54 250.716 248.521C248.425 246.502 245.164 245.493 240.932 245.493C236.467 245.493 232.914 246.483 230.274 248.463C227.634 250.404 225.887 252.85 225.033 255.801L202.087 253.938C203.251 248.502 205.542 243.804 208.959 239.844C212.375 235.845 216.782 232.777 222.179 230.642C227.615 228.468 233.904 227.381 241.048 227.381C246.018 227.381 250.774 227.963 255.317 229.128C259.898 230.293 263.955 232.098 267.489 234.544C271.061 236.99 273.875 240.135 275.933 243.979C277.991 247.784 279.02 252.346 279.02 257.665V318H255.491V305.595H254.793C253.356 308.391 251.434 310.856 249.027 312.991C246.62 315.088 243.727 316.738 240.349 317.942C236.972 319.107 233.07 319.689 228.643 319.689ZM235.749 302.567C239.398 302.567 242.621 301.848 245.416 300.412C248.212 298.937 250.405 296.956 251.997 294.472C253.589 291.987 254.385 289.172 254.385 286.027V276.534C253.608 277.039 252.541 277.505 251.182 277.932C249.862 278.32 248.367 278.689 246.697 279.038C245.028 279.349 243.358 279.64 241.689 279.912C240.019 280.145 238.505 280.358 237.146 280.553C234.234 280.98 231.691 281.659 229.517 282.591C227.343 283.523 225.654 284.785 224.45 286.376C223.247 287.929 222.645 289.871 222.645 292.2C222.645 295.578 223.868 298.16 226.314 299.946C228.799 301.693 231.944 302.567 235.749 302.567ZM345.849 228.545V247.182H291.978V228.545H345.849ZM304.208 207.114H329.018V290.511C329.018 292.802 329.367 294.588 330.066 295.869C330.765 297.112 331.736 297.985 332.978 298.49C334.259 298.995 335.735 299.247 337.404 299.247C338.569 299.247 339.734 299.15 340.898 298.956C342.063 298.723 342.956 298.548 343.577 298.432L347.479 316.893C346.237 317.282 344.49 317.728 342.238 318.233C339.986 318.777 337.249 319.107 334.026 319.223C328.047 319.456 322.806 318.66 318.302 316.835C313.837 315.01 310.362 312.176 307.877 308.332C305.392 304.489 304.169 299.635 304.208 293.773V207.114ZM362.01 318V228.545H386.82V318H362.01ZM374.473 217.014C370.785 217.014 367.62 215.791 364.98 213.345C362.379 210.86 361.078 207.89 361.078 204.435C361.078 201.018 362.379 198.087 364.98 195.641C367.62 193.156 370.785 191.913 374.473 191.913C378.161 191.913 381.306 193.156 383.908 195.641C386.548 198.087 387.868 201.018 387.868 204.435C387.868 207.89 386.548 210.86 383.908 213.345C381.306 215.791 378.161 217.014 374.473 217.014Z" fill="white"/>
<path d="M110.011 198.727L134.064 239.378H134.996L159.165 198.727H187.643L151.244 258.364L188.459 318H159.456L134.996 277.291H134.064L109.604 318H80.7173L118.048 258.364L81.4162 198.727H110.011ZM228.643 319.689C222.936 319.689 217.85 318.699 213.385 316.719C208.92 314.7 205.387 311.73 202.786 307.808C200.223 303.848 198.942 298.917 198.942 293.016C198.942 288.046 199.854 283.872 201.679 280.494C203.504 277.116 205.989 274.399 209.134 272.341C212.278 270.283 215.85 268.73 219.849 267.682C223.887 266.634 228.119 265.896 232.545 265.469C237.748 264.925 241.941 264.42 245.125 263.955C248.309 263.45 250.619 262.712 252.055 261.741C253.492 260.771 254.21 259.334 254.21 257.432V257.082C254.21 253.394 253.045 250.54 250.716 248.521C248.425 246.502 245.164 245.493 240.932 245.493C236.467 245.493 232.914 246.483 230.274 248.463C227.634 250.404 225.887 252.85 225.033 255.801L202.087 253.938C203.251 248.502 205.542 243.804 208.959 239.844C212.375 235.845 216.782 232.777 222.179 230.642C227.615 228.468 233.904 227.381 241.048 227.381C246.018 227.381 250.774 227.963 255.317 229.128C259.898 230.293 263.955 232.098 267.489 234.544C271.061 236.99 273.875 240.135 275.933 243.979C277.991 247.784 279.02 252.346 279.02 257.665V318H255.491V305.595H254.793C253.356 308.391 251.434 310.856 249.027 312.991C246.62 315.088 243.727 316.738 240.349 317.942C236.972 319.107 233.07 319.689 228.643 319.689ZM235.749 302.567C239.398 302.567 242.621 301.848 245.416 300.412C248.212 298.937 250.405 296.956 251.997 294.472C253.589 291.987 254.385 289.172 254.385 286.027V276.534C253.608 277.039 252.541 277.505 251.182 277.932C249.862 278.32 248.367 278.689 246.697 279.038C245.028 279.349 243.358 279.64 241.689 279.912C240.019 280.145 238.505 280.358 237.146 280.553C234.234 280.98 231.691 281.659 229.517 282.591C227.343 283.523 225.654 284.785 224.45 286.376C223.247 287.929 222.645 289.871 222.645 292.2C222.645 295.578 223.868 298.16 226.314 299.946C228.799 301.693 231.944 302.567 235.749 302.567ZM345.849 228.545V247.182H291.978V228.545H345.849ZM304.208 207.114H329.018V290.511C329.018 292.802 329.367 294.588 330.066 295.869C330.765 297.112 331.736 297.985 332.978 298.49C334.259 298.995 335.735 299.247 337.404 299.247C338.569 299.247 339.734 299.15 340.898 298.956C342.063 298.723 342.956 298.548 343.577 298.432L347.479 316.893C346.237 317.282 344.49 317.728 342.238 318.233C339.986 318.777 337.249 319.107 334.026 319.223C328.047 319.456 322.806 318.66 318.302 316.835C313.837 315.01 310.362 312.176 307.877 308.332C305.392 304.489 304.169 299.635 304.208 293.773V207.114ZM362.01 318V228.545H386.82V318H362.01ZM374.473 217.014C370.785 217.014 367.62 215.791 364.98 213.345C362.379 210.86 361.078 207.89 361.078 204.435C361.078 201.018 362.379 198.087 364.98 195.641C367.62 193.156 370.785 191.913 374.473 191.913C378.161 191.913 381.306 193.156 383.908 195.641C386.548 198.087 387.868 201.018 387.868 204.435C387.868 207.89 386.548 210.86 383.908 213.345C381.306 215.791 378.161 217.014 374.473 217.014Z" fill="url(#paint0_linear_3582_75)"/>
<path d="M421.195 319.514C417.351 319.514 414.051 318.155 411.294 315.438C408.577 312.681 407.218 309.381 407.218 305.537C407.218 301.732 408.577 298.471 411.294 295.753C414.051 293.035 417.351 291.676 421.195 291.676C424.922 291.676 428.184 293.035 430.979 295.753C433.775 298.471 435.172 301.732 435.172 305.537C435.172 308.099 434.512 310.448 433.192 312.584C431.911 314.68 430.222 316.369 428.125 317.651C426.029 318.893 423.719 319.514 421.195 319.514Z" fill="#243443"/>
<defs>
<linearGradient id="paint0_linear_3582_75" x1="264" y1="159" x2="264" y2="339" gradientUnits="userSpaceOnUse">
<stop stop-color="white"/>
<stop offset="1" stop-color="white" stop-opacity="0"/>
</linearGradient>
</defs>
</svg>
